<svg viewBox="0 -49 512 512" xmlns="http://www.w3.org/2000/svg"><path d="m20.464844 367.972656h95.972656v23.890625c0 12.746094 10.371094 23.117188 23.117188 23.117188h98.394531c4.144531 0 7.5-3.359375 7.5-7.5s-3.355469-7.5-7.5-7.5h-53.726563v-94.46875c0-4.144531-3.359375-7.5-7.5-7.5-4.144531 0-7.5 3.355469-7.5 7.5v94.46875h-29.667968c-4.472657 0-8.113282-3.640625-8.113282-8.117188 0-1.546875 0-117.808593 0-121.039062 0-11.140625 4.058594-21.238281 12.722656-29.214844 7.984376-7.359375 11.15625-7.429687 41.148438-19.042969 6.394531 7.027344 13.371094 14.652344 20.808594 22.742188 26.421875 28.730468 71.867187 28.726562 98.285156-.003906 7.613281-8.277344 14.71875-16.042969 21.195312-23.160157l29.679688 11.496094h.007812c15.570313 6.023437 25.269532 21.175781 25.269532 37.183594v121.039062c0 4.476563-3.640625 8.117188-8.113282 8.117188h-29.667968v-94.46875c0-4.144531-3.355469-7.5-7.5-7.5-4.140625 0-7.5 3.355469-7.5 7.5v94.46875h-54.824219c-4.144531 0-7.5 3.355469-7.5 7.5 0 4.140625 3.355469 7.5 7.5 7.5h99.492187c12.746094 0 23.117188-10.371094 23.117188-23.117188v-23.890625h95.972656c11.285156 0 20.464844-9.179687 20.464844-20.464844v-37.992187c0-4.140625-3.355469-7.5-7.5-7.5s-7.5 3.359375-7.5 7.5v37.992187c0 3.011719-2.449219 5.460938-5.464844 5.460938h-23.347656v-77.136719c0-4.140625-3.355469-7.5-7.5-7.5s-7.5 3.359375-7.5 7.5v77.136719h-57.625v-82.144531c0-8.816407-1.835938-16.265625-4.628906-22.519531 18.082031.941406 35.675781-6.1875 47.894531-19.472657 6.269531-6.816406 12.199219-13.296875 17.691406-19.332031l21.949219 8.5c1.390625.609375 18.53125 8.550781 18.53125 29.042969v27.472656c0 4.140625 3.355469 7.5 7.5 7.5s7.5-3.359375 7.5-7.5v-27.472656c0-31.117188-26.714844-42.460938-27.851562-42.925781-.046876-.019532-.09375-.039063-.144532-.058594l-38.507812-14.914063h5.277344c14.164062 0 26.386718-8.628906 31.144531-21.980469 4.410156-12.378906 1.34375-25.644531-7.777344-34.65625 1.644531-5.242187 1.496094-10.976562-.492187-16.152343-2.046876-5.34375-5.785157-9.6875-10.675782-12.476563v-14.417968c0-38.039063-30.941406-68.488282-67.335937-68.488282-28.941407.214844-53.671875 18.988282-63.121094 45.054688-5.496094-37.300782-37.710937-66.027344-76.515625-66.027344-36.234375 0-66.710938 25.046875-75.070312 58.730469-15.8125-32.050781-41.808594-42.234375-65.097657-36.171875-24.984375-6.507813-53.527343 5.40625-69.113281 45.285156-13.589844 34.78125-6.910156 64.664062-.449219 93.566406l.453125 2.027344c2.101563 9.417969 10.308594 15.996094 19.957032 15.996094h19.253906v2.1875c-.003906 0-31.699219 12.277344-31.699219 12.277344l-26.238281 10.160156c-.050782.019531-.097656.039062-.144532.058594-1.136718.464843-27.851562 11.804687-27.851562 42.921874v100.46875c0 11.285157 9.179688 20.464844 20.464844 20.464844zm272.902344-132.820312c-20.550782 22.347656-55.679688 22.316406-76.203126 0-5.929687-6.449219-11.570312-12.605469-16.851562-18.398438.074219-.027344 2.070312-.820312 6.304688-2.460937 4.589843 5.0625 9.816406 10.777343 15.605468 17.074219 17.816406 19.375 48.457032 19.371093 66.269532 0 5.886718-6.402344 11.21875-12.238282 15.925781-17.425782l6.183593 2.394532c-5.378906 5.894531-11.144531 12.191406-17.234374 18.816406zm5.789062-99.960938c0 23.101563-18.789062 42.394532-42.363281 42.4375-.023438 0-.046875 0-.074219 0-.019531 0-.042969 0-.0625 0-25.609375-.03125-43.816406-19.773437-43.816406-42.4375v-16.5c21.511718-8.421875 41.898437-24.804687 57.195312-41.628906 8.839844 8.492188 19.171875 14.6875 29.121094 18.09375zm14.351562 8.65625c.007813 0 .019532-.003906.03125-.003906 1.601563-.238281 3.179688-.601562 4.71875-1.082031.03125-.011719.0625-.015625.09375-.023438v33.128907c0 .011718-.003906.027343-.003906.039062-.019531.953125-.800781 1.722656-1.757812 1.722656h-21.203125c9.222656-8.410156 16.058593-20.207031 18.121093-33.78125zm-87.183593 62.804688c5.125-1.984375 8.566406-7.011719 8.566406-12.511719v-5.332031c7.023437 2.628906 14.738281 3.824218 21.828125 3.824218 7.003906 0 14.089844-1.347656 20.308594-3.707031v5.214844c0 5.5 3.445312 10.527344 8.574218 12.511719l3.820313 1.480468c-3.671875 4.035157-7.675781 8.410157-11.972656 13.078126-11.914063 12.957031-32.285157 12.945312-44.1875.003906-4.1875-4.558594-8.085938-8.816406-11.65625-12.734375zm201.460937 12.023437c-12.648437 13.757813-32.558594 18.375-49.941406 11.714844-4.289062-3.898437-10.339844-8.109375-15.75-10.199219-1.476562-1.445312-13.433594-14.5625-14.859375-16.121094l6.304687-2.445312c3.671876 4.046875 7.816407 8.578125 12.371094 13.53125 15.28125 16.617188 41.5625 16.660156 56.882813 0 4.644531-5.050781 8.875-9.679688 12.636719-13.824219l6.089843 2.359375c-4.351562 4.765625-8.945312 9.777344-13.734375 14.984375zm-16.589844-33.515625c.007813.039063.007813.074219.015626.113282.144531.929687.394531 1.828124.738281 2.6875 1.257812 3.152343 3.785156 5.742187 7.046875 7.007812l1.4375.554688c-2.699219 2.960937-5.601563 6.125-8.683594 9.476562-9.382812 10.203125-25.425781 10.195312-34.800781 0-2.988281-3.25-5.800781-6.320312-8.414063-9.1875l2.179688-.84375c.253906-.101562.5-.210938.742187-.324219.042969-.019531.085938-.035156.125-.054687.199219-.09375.386719-.199219.574219-.300782.085938-.046874.175781-.089843.257812-.136718h.003907c.109375-.0625.210937-.136719.316406-.203125 6.253906-3.878907 5.90625-9.949219 5.90625-13.222657 10.285156 3.4375 22.042969 3.644532 32.425781.148438-.003906 2.753906-.03125 3.171875.128906 4.285156zm-44.195312-30.503906c-4.25-5.753906-6.625-12.824219-6.660156-20.019531 0-.054688-.003906-.113281-.003906-.171875v-15.5625c18.21875-2.40625 27.222656-13.875 31.164062-21.121094.128906-.234375.25-.464844.367188-.6875 11.539062 1.140625 19.808593-3.070312 24.882812-7.066406 4.1875 4.804687 8.992188 7.214844 12.683594 8.417968v35.703126c0 33.296874-42.976563 46.839843-62.433594 20.507812zm-33.648438-22.484375c3.757813-5.054687 5.375-10.996094 4.996094-16.527344 3.121094-1.910156 5.0625-5.328125 5.0625-9.089843v-17.097657c0-29.261719 23.445313-53.246093 52.28125-53.484375 28.832032.242188 52.28125 24.222656 52.28125 53.484375v17.097657c0 4.304687 2.546875 8.160156 6.484375 9.820312 2.410157 1.015625 4.25 2.914062 5.1875 5.347656.933594 2.441406.839844 5.078125-.265625 7.425782-2.09375 4.460937-.921875 9.722656 2.851563 12.800781 7.277343 5.941406 7.644531 14.316406 5.558593 20.175781-2.070312 5.808594-7.628906 12.015625-17.015624 12.015625h-24.707032v-1.53125c11.8125-9.53125 18.367188-23.839844 18.367188-38.460937v-39.667969c0-4.59375-3.0625-8.472657-7.417969-9.617188-.058594-.015625-.113281-.035156-.175781-.050781-.035156-.007812-.074219-.015625-.113282-.023438-.257812-.058593-.523437-.113281-.792968-.15625-2.320313-.347656-6.675782-1.742187-9.769532-7.148437-.199218-.347656-.417968-.683594-.65625-1.003906-1.667968-2.238281-4.222656-3.703125-7.035156-3.980469-3.183594-.3125-6.371094.941406-8.484375 3.363281-3.277343 3.765625-9.273437 7.847657-19.1875 5.925781-4.765625-.921874-9.488281 1.675782-11.234375 6.175782-1.828125 4.695312-7.886718 15.6875-24.632812 16.355468-5.382813.214844-9.601563 4.59375-9.601563 9.972657v20.167969c0 .109374.007813.21875.007813.332031.113281 15.304687 7.347656 29.195312 18.296875 37.804687v1.542969h-23.03125c-2.609375 0-5.039063-.480469-7.253907-1.425781zm7.257813 56.972656h3.621094l-12.617188 4.890625c-.003906.003906-.007812.003906-.011719.003906l-18.503906 7.175782-8.066406-3.125c-.003906 0-.003906 0-.003906 0l-12.996094-5.03125v-.425782h24.558594c4.925781 0 9.347656-2.148437 12.414062-5.539062 3.648438 1.335938 7.554688 2.050781 11.605469 2.050781zm-17.78125-68.75c-1.339844 3.738281-4.820313 6.574219-8.667969 7.898438v-22.226563c6.242188 2.136719 10.917969 8.046875 8.667969 14.328125zm-129.179687-43.042969c0-34.382812 27.972656-62.351562 62.351562-62.351562s62.351562 27.96875 62.351562 62.351562v14.273438c-1.203124-.382812-2.984374-.824219-4.445312-1.054688-.890625-4.304687-4.09375-7.816406-8.351562-9.109374-5.523438-1.679688-16.371094-6.121094-26.933594-17.015626-5.019532-5.175781-13.234375-4.789062-17.828125.449219-7.84375 8.945313-28.914063 30.800781-55.023438 40.441407-4.742187 1.75-7.929687 6.324218-7.929687 11.378906v18.476562c0 15.789063 6.515625 31.363282 18.761718 42.4375h-21.191406c-.96875 0-1.757812-.789062-1.757812-1.757812v-98.519532zm1.761718 115.277344h24.480469v.429688l-4.296875 1.664062-16.714844 6.480469c-21.394531-8.292969-10.207031-3.957031-48.269531-18.710937l-2.246094-.871094v-2.191406h16.621094c5.226563 0 10.023437-1.945313 13.664063-5.210938v1.652344c0 9.238281 7.519531 16.757812 16.761718 16.757812zm-128.730468-28.199218c-2.574219 0-4.757813-1.75-5.316407-4.261719l-.457031-2.03125c-6.511719-29.148438-12.140625-54.320313-.214844-84.835938 18.542969-47.449219 51.171875-36.378906 52.503906-35.898437 1.699219.636718 3.570313.636718 5.269532 0 .082031-.03125 8.246094-2.914063 18.535156-.410156 14.507812 3.535156 25.9375 15.753906 33.96875 36.3125 11.925781 30.507812 6.300781 55.679687-.214844 84.824218l-.453125 2.039063c-.5625 2.507812-2.746093 4.261719-5.316406 4.261719h-8.5625c6.597656-8.5 10.246094-19.105469 10.246094-29.964844v-28.101563c0-.316406-.019531-.636719-.050781-.949219-.230469-2.207031-1.25-4.289062-2.878907-5.816406-1.8125-1.699218-4.265625-2.597656-6.746093-2.515625-.085938.003907-.171876 0-.257813.003907-.078125.003906-.175781-.003907-.261719-.007813-4.921875-.140625-25.828125-8.640625-31.066406-26.625-1.070312-3.667969-4.476562-6.230469-8.289062-6.230469s-7.222657 2.5625-8.292969 6.234375c-5.277344 18.136719-26.480469 26.632813-31.1875 26.632813-6.632813 0-10.070313 4.625-10.070313 9.273437v28.101563c0 10.421875 3.398438 21.152344 10.238282 29.964844zm15.886718-29.964844v-23.054688c9.9375-2.25 25.289063-10.148437 34.550782-23.84375 9.265624 13.695313 24.613281 21.59375 34.550781 23.84375v23.054688c0 19.691406-15.839844 33.929687-34.640625 33.929687-18.753906.34375-34.460938-14.917969-34.460938-33.929687zm56.554688 59.394531c1.308594.835937 2.042968 1.058594 4.347656 1.953125-2.617188 2.867188-5.429688 5.9375-8.417969 9.1875-9.386719 10.203125-25.425781 10.191406-34.800781 0-3.082031-3.351562-5.980469-6.515625-8.679688-9.476562l1.433594-.554688c4.726563-1.828125 7.933594-6.46875 7.933594-11.578125v-2.519531c10.332031 3.476562 22.46875 3.355468 32.425781-.023438-.003906 2.28125-.652343 8.910156 5.757813 13.011719zm-62.550782 7.472656c3.761719 4.140625 7.992188 8.773438 12.636719 13.820313 15.292969 16.628906 41.59375 16.632812 56.882813 0 4.554687-4.949219 8.699218-9.484375 12.371094-13.527344 2.636718 1.023438 1.390624.539062 5.679687 2.203125-14.859375 16.277344-14.558594 15.882813-15.691406 16.953125-3.890625 1.753906-8.988281 4.929688-13.578125 8.96875-17.792969 7.601562-38.351563 3.230469-51.503906-11.070312-4.726563-5.140626-9.246094-10.074219-13.511719-14.746094zm-61.570312 45.707031c0-20.488281 17.144531-28.429687 18.53125-29.039062l21.324219-8.257812c5.398437 5.929687 11.253906 12.328124 17.46875 19.089843 12.359375 13.4375 30.113281 20.742188 48.75 19.449219-2.796875 6.257812-4.636719 13.714844-4.636719 22.539062v82.148438h-57.625v-77.136719c0-4.140625-3.355469-7.5-7.5-7.5s-7.5 3.359375-7.5 7.5v77.136719h-23.347656c-3.015625 0-5.464844-2.449219-5.464844-5.460938zm0 0"/></svg>